<?xml version="1.0" encoding="UTF-8" standalone="no"?>
<svg
   xmlns:dc="http://purl.org/dc/elements/1.1/"
   xmlns:cc="http://creativecommons.org/ns#"
   xmlns:rdf="http://www.w3.org/1999/02/22-rdf-syntax-ns#"
   xmlns:svg="http://www.w3.org/2000/svg"
   xmlns="http://www.w3.org/2000/svg"
   style="fill:none"
   id="svg8"
   version="1.1"
   viewBox="0 0 945.21582 191.6389"
   height="191.6389"
   width="945.21582">
  <metadata
     id="metadata14">
    <rdf:RDF>
      <cc:Work
         rdf:about="">
        <dc:format>image/svg+xml</dc:format>
        <dc:type
           rdf:resource="http://purl.org/dc/dcmitype/StillImage" />
      </cc:Work>
    </rdf:RDF>
  </metadata>
  <defs
     id="defs12" />
  <path
     style="fill:#000000"
     id="path2"
     d="m 123.2918,111.6889 c -3.9,14.6 -8.5,28.6 -13.8,42 -5.2,13.4 -10.250004,25.4 -15.150004,36 h -12.6 c -4.9,-10.6 -10,-22.6 -15.3,-36 -5.2,-13.4 -9.75,-27.4 -13.65,-42 h 15 c 1.2,4.9 2.6,10.15 4.2,15.75 1.7,5.5 3.45,11 5.25,16.5 1.9,5.4 3.8,10.65 5.7,15.75 1.9,5.1 3.7,9.65 5.4,13.65 1.7,-4 3.5,-8.55 5.4,-13.65 1.9,-5.1 3.75,-10.35 5.55,-15.75 1.900004,-5.5 3.650004,-11 5.250004,-16.5 1.7,-5.6 3.15,-10.85 4.35,-15.75 z m 14.393,2.25 c 3.2,-0.8 7.45,-1.65 12.75,-2.55 5.3,-0.9 11.4,-1.35 18.3,-1.35 6.2,0 11.35,0.9 15.45,2.7 4.1,1.7 7.35,4.15 9.75,7.35 2.5,3.1 4.25,6.85 5.25,11.25 1,4.4 1.5,9.25 1.5,14.55 v 43.8 h -13.95 v -40.8 c 0,-4.8 -0.35,-8.9 -1.05,-12.3 -0.6,-3.4 -1.65,-6.15 -3.15,-8.25 -1.5,-2.1 -3.5,-3.6 -6,-4.5 -2.5,-1 -5.6,-1.5 -9.3,-1.5 -1.5,0 -3.05,0.05 -4.65,0.15 -1.6,0.1 -3.15,0.25 -4.65,0.45 -1.4,0.1 -2.7,0.25 -3.9,0.45 -1.1,0.2 -1.9,0.35 -2.4,0.45 v 65.85 h -13.95 z m 147.832,75.75 c -2.8,-7.2 -5.8,-15.4 -9,-24.6 -3.1,-9.3 -5.95,-18.95 -8.55,-28.95 -2.6,10 -5.45,19.65 -8.55,28.95 -3.1,9.2 -6.05,17.4 -8.85,24.6 h -12.15 c -4.6,-10.3 -9.1,-22.05 -13.5,-35.25 -4.4,-13.2 -8.55,-27.45 -12.45,-42.75 h 15 c 1,4.7 2.2,9.8 3.6,15.3 1.4,5.5 2.85,11 4.35,16.5 1.6,5.5 3.25,10.8 4.95,15.9 1.7,5.1 3.3,9.55 4.8,13.35 1.7,-4.7 3.35,-9.65 4.95,-14.85 1.7,-5.3 3.3,-10.6 4.8,-15.9 1.5,-5.4 2.9,-10.65 4.2,-15.75 1.4,-5.2 2.6,-10.05 3.6,-14.55 h 11.55 c 0.9,4.5 2,9.35 3.3,14.55 1.3,5.1 2.7,10.35 4.2,15.75 1.5,5.3 3.05,10.6 4.65,15.9 1.7,5.2 3.4,10.15 5.1,14.85 1.5,-3.8 3.05,-8.25 4.65,-13.35 1.7,-5.1 3.35,-10.4 4.95,-15.9 1.6,-5.5 3.1,-11 4.5,-16.5 1.4,-5.5 2.6,-10.6 3.6,-15.3 h 14.4 c -3.9,15.3 -8.05,29.55 -12.45,42.75 -4.4,13.2 -8.9,24.95 -13.5,35.25 z m 119.944,-39 c 0,6.2 -0.9,11.8 -2.7,16.8 -1.8,5 -4.35,9.3 -7.65,12.9 -3.2,3.6 -7.05,6.4 -11.55,8.4 -4.5,1.9 -9.4,2.85 -14.7,2.85 -5.3,0 -10.2,-0.95 -14.7,-2.85 -4.5,-2 -8.4,-4.8 -11.7,-8.4 -3.2,-3.6 -5.7,-7.9 -7.5,-12.9 -1.8,-5 -2.7,-10.6 -2.7,-16.8 0,-6.1 0.9,-11.65 2.7,-16.65 1.8,-5.1 4.3,-9.45 7.5,-13.05 3.3,-3.6 7.2,-6.35 11.7,-8.25 4.5,-2 9.4,-3 14.7,-3 5.3,0 10.2,1 14.7,3 4.5,1.9 8.35,4.65 11.55,8.25 3.3,3.6 5.85,7.95 7.65,13.05 1.8,5 2.7,10.55 2.7,16.65 z m -14.55,0 c 0,-8.8 -2,-15.75 -6,-20.85 -3.9,-5.2 -9.25,-7.8 -16.05,-7.8 -6.8,0 -12.2,2.6 -16.2,7.8 -3.9,5.1 -5.85,12.05 -5.85,20.85 0,8.8 1.95,15.8 5.85,21 4,5.1 9.4,7.65 16.2,7.65 6.8,0 12.15,-2.55 16.05,-7.65 4,-5.2 6,-12.2 6,-21 z m 34.176,-36.75 c 3.2,-0.8 7.45,-1.65 12.75,-2.55 5.3,-0.9 11.4,-1.35 18.3,-1.35 6.2,0 11.35,0.9 15.45,2.7 4.1,1.7 7.35,4.15 9.75,7.35 2.5,3.1 4.25,6.85 5.25,11.25 1,4.4 1.5,9.25 1.5,14.55 v 43.8 h -13.95 v -40.8 c 0,-4.8 -0.35,-8.9 -1.05,-12.3 -0.6,-3.4 -1.65,-6.15 -3.15,-8.25 -1.5,-2.1 -3.5,-3.6 -6,-4.5 -2.5,-1 -5.6,-1.5 -9.3,-1.5 -1.5,0 -3.05,0.05 -4.65,0.15 -1.6,0.1 -3.15,0.25 -4.65,0.45 -1.4,0.1 -2.7,0.25 -3.9,0.45 -1.1,0.2 -1.9,0.35 -2.4,0.45 v 65.85 h -13.95 z m 112.533,65.7 c 3.3,0 6.2,-0.05 8.7,-0.15 2.6,-0.2 4.75,-0.5 6.45,-0.9 v -23.25 c -1,-0.5 -2.65,-0.9 -4.95,-1.2 -2.2,-0.4 -4.9,-0.6 -8.1,-0.6 -2.1,0 -4.35,0.15 -6.75,0.45 -2.3,0.3 -4.45,0.95 -6.45,1.95 -1.9,0.9 -3.5,2.2 -4.8,3.9 -1.3,1.6 -1.95,3.75 -1.95,6.45 0,5 1.6,8.5 4.8,10.5 3.2,1.9 7.55,2.85 13.05,2.85 z m -1.2,-69.9 c 5.6,0 10.3,0.75 14.1,2.25 3.9,1.4 7,3.45 9.3,6.15 2.4,2.6 4.1,5.75 5.1,9.45 1,3.6 1.5,7.6 1.5,12 v 48.75 c -1.2,0.2 -2.9,0.5 -5.1,0.9 -2.1,0.3 -4.5,0.6 -7.2,0.9 -2.7,0.3 -5.65,0.55 -8.85,0.75 -3.1,0.3 -6.2,0.45 -9.3,0.45 -4.4,0 -8.45,-0.45 -12.15,-1.35 -3.7,-0.9 -6.9,-2.3 -9.6,-4.2 -2.7,-2 -4.8,-4.6 -6.3,-7.8 -1.5,-3.2 -2.25,-7.05 -2.25,-11.55 0,-4.3 0.85,-8 2.55,-11.1 1.8,-3.1 4.2,-5.6 7.2,-7.5 3,-1.9 6.5,-3.3 10.5,-4.2 4,-0.9 8.2,-1.35 12.6,-1.35 1.4,0 2.85,0.1 4.35,0.3 1.5,0.1 2.9,0.3 4.2,0.6 1.4,0.2 2.6,0.4 3.6,0.6 1,0.2 1.7,0.35 2.1,0.45 v -3.9 c 0,-2.3 -0.25,-4.55 -0.75,-6.75 -0.5,-2.3 -1.4,-4.3 -2.7,-6 -1.3,-1.8 -3.1,-3.2 -5.4,-4.2 -2.2,-1.1 -5.1,-1.65 -8.7,-1.65 -4.6,0 -8.65,0.35 -12.15,1.05 -3.4,0.6 -5.95,1.25 -7.65,1.95 l -1.65,-11.55 c 1.8,-0.8 4.8,-1.55 9,-2.25 4.2,-0.8 8.75,-1.2 13.65,-1.2 z m 53.169,79.95 V 75.688901 l 13.95,-2.4 V 113.1889 c 2.6,-1 5.35,-1.75 8.25,-2.25 3,-0.6 5.95,-0.9 8.85,-0.9 6.2,0 11.35,0.9 15.45,2.7 4.1,1.7 7.35,4.15 9.75,7.35 2.5,3.1 4.25,6.85 5.25,11.25 1,4.4 1.5,9.25 1.5,14.55 v 43.8 h -13.95 v -40.8 c 0,-4.8 -0.35,-8.9 -1.05,-12.3 -0.6,-3.4 -1.65,-6.15 -3.15,-8.25 -1.5,-2.1 -3.5,-3.6 -6,-4.5 -2.5,-1 -5.6,-1.5 -9.3,-1.5 -1.5,0 -3.05,0.1 -4.65,0.3 -1.6,0.2 -3.15,0.45 -4.65,0.75 -1.4,0.2 -2.7,0.45 -3.9,0.75 -1.1,0.3 -1.9,0.55 -2.4,0.75 v 64.8 z m 102.194,-8.1 c 0,2.7 -0.9,5.05 -2.7,7.05 -1.8,2 -4.25,3 -7.35,3 -3.1,0 -5.55,-1 -7.35,-3 -1.8,-2 -2.7,-4.35 -2.7,-7.05 0,-2.7 0.9,-5.05 2.7,-7.05 1.8,-2 4.25,-3 7.35,-3 3.1,0 5.55,1 7.35,3 1.8,2 2.7,4.35 2.7,7.05 z m 70.814,-53.4 c -1.7,-1.4 -4.15,-2.75 -7.35,-4.05 -3.2,-1.3 -6.7,-1.95 -10.5,-1.95 -4,0 -7.45,0.75 -10.35,2.25 -2.8,1.4 -5.1,3.4 -6.9,6 -1.8,2.5 -3.1,5.5 -3.9,9 -0.8,3.5 -1.2,7.25 -1.2,11.25 0,9.1 2.25,16.15 6.75,21.15 4.5,4.9 10.5,7.35 18,7.35 3.8,0 6.95,-0.15 9.45,-0.45 2.6,-0.4 4.6,-0.8 6,-1.2 z m 0,-52.499999 13.95,-2.4 V 187.4389 c -3.2,0.9 -7.3,1.8 -12.3,2.7 -5,0.9 -10.75,1.35 -17.25,1.35 -6,0 -11.4,-0.95 -16.2,-2.85 -4.8,-1.9 -8.9,-4.6 -12.3,-8.1 -3.4,-3.5 -6.05,-7.75 -7.95,-12.75 -1.8,-5.1 -2.7,-10.8 -2.7,-17.1 0,-6 0.75,-11.5 2.25,-16.5 1.6,-5 3.9,-9.3 6.9,-12.9 3,-3.6 6.65,-6.4 10.95,-8.4 4.4,-2 9.4,-3 15,-3 4.5,0 8.45,0.6 11.85,1.8 3.5,1.2 6.1,2.35 7.8,3.45 z m 33.58,75.149999 c 0,-6.9 1,-12.9 3,-18 2,-5.2 4.65,-9.5 7.95,-12.9 3.3,-3.4 7.1,-5.95 11.4,-7.65 4.3,-1.7 8.7,-2.55 13.2,-2.55 10.5,0 18.55,3.3 24.15,9.9 5.6,6.5 8.4,16.45 8.4,29.85 0,0.6 0,1.4 0,2.4 0,0.9 -0.05,1.75 -0.15,2.55 h -53.4 c 0.6,8.1 2.95,14.25 7.05,18.45 4.1,4.2 10.5,6.3 19.2,6.3 4.9,0 9,-0.4 12.3,-1.2 3.4,-0.9 5.95,-1.75 7.65,-2.55 l 1.95,11.7 c -1.7,0.9 -4.7,1.85 -9,2.85 -4.2,1 -9,1.5 -14.4,1.5 -6.8,0 -12.7,-1 -17.7,-3 -4.9,-2.1 -8.95,-4.95 -12.15,-8.55 -3.2,-3.6 -5.6,-7.85 -7.2,-12.75 -1.5,-5 -2.25,-10.45 -2.25,-16.35 z m 53.55,-7.65 c 0.1,-6.3 -1.5,-11.45 -4.8,-15.45 -3.2,-4.1 -7.65,-6.15 -13.35,-6.15 -3.2,0 -6.05,0.65 -8.55,1.95 -2.4,1.2 -4.45,2.8 -6.15,4.8 -1.7,2 -3.05,4.3 -4.05,6.9 -0.9,2.6 -1.5,5.25 -1.8,7.95 z m 95.489,-31.5 c -3.9,14.6 -8.5,28.6 -13.8,42 -5.2,13.4 -10.25,25.4 -15.15,36 h -12.6 c -4.9,-10.6 -10,-22.6 -15.3,-36 -5.2,-13.4 -9.75,-27.4 -13.65,-42 h 15 c 1.2,4.9 2.6,10.15 4.2,15.75 1.7,5.5 3.45,11 5.25,16.5 1.9,5.4 3.8,10.65 5.7,15.75 1.9,5.1 3.7,9.65 5.4,13.65 1.7,-4 3.5,-8.55 5.4,-13.65 1.9,-5.1 3.75,-10.35 5.55,-15.75 1.9,-5.5 3.65,-11 5.25,-16.5 1.7,-5.6 3.15,-10.85 4.35,-15.75 z" />
  <circle
     style="fill:#8b4ca8"
     id="circle4"
     transform="rotate(-17.183)"
     r="59.0005"
     cy="73.797272"
     cx="38.936874" />
  <path
     style="fill:#ffffff"
     id="path6"
     d="m 51.874196,43.762901 c -0.1269,3.8772 -0.2848,7.4849 -0.4737,10.823 -0.1669,3.2965 -0.3623,6.4447 -0.586,9.4447 -0.2237,3 -0.4819,5.8885 -0.7745,8.6656 -0.2707,2.7354 -0.5781,5.4647 -0.9223,8.1879 l -4.3469,1.3442 c -1.8213,-2.0536 -3.6316,-4.1281 -5.4309,-6.2234 -1.7773,-2.1369 -3.621,-4.3755 -5.5309,-6.7157 -1.8781,-2.3501 -3.8323,-4.8336 -5.8627,-7.4506 -2.0403,-2.6488 -4.1912,-5.5425 -6.4527,-8.6812 l 5.1112,-1.5805 c 3.2756,4.4998 6.4602,8.8184 9.5539,12.9558 3.0937,4.1374 6.1465,7.9734 9.1585,11.508 0.5009,-4.586 0.8605,-9.4598 1.0787,-14.6213 0.2084,-5.1933 0.3785,-10.5668 0.5104,-16.1203 z m 37.5246,24.6654 c -1.065,-0.9617 -2.286,-2.0322 -3.663,-3.2115 -1.3443,-1.1891 -2.7833,-2.4015 -4.3168,-3.6369 -1.5433,-1.2673 -3.1392,-2.5358 -4.7879,-3.8054 -1.6168,-1.2795 -3.2139,-2.4952 -4.7914,-3.6473 -1.5872,-1.1839 -3.1131,-2.2822 -4.5776,-3.2947 -1.4645,-1.0126 -2.8001,-1.8905 -4.0069,-2.6338 l 7.9912,25.8426 -4.538,1.4033 -10.2365,-33.1034 3.6782,-1.1374 c 1.9891,1.1294 4.1575,2.5 6.5051,4.1117 2.3696,1.5701 4.7319,3.2296 7.0871,4.9785 2.3771,1.7073 4.6329,3.4172 6.7675,5.1297 2.1663,1.7027 4.02,3.2404 5.561,4.6131 l -7.5777,-24.5052 4.538,-1.4032 10.2367,33.1034 z" />
</svg>
