<svg width="148" height="148" viewBox="0 0 148 148" fill="none" xmlns="http://www.w3.org/2000/svg">
<circle cx="73.7973" cy="73.7974" r="59.0005" transform="rotate(-17.183 73.7973 73.7974)" fill="#8B4CA8"/>
<path d="M66.6711 58.5598C66.5442 62.437 66.3863 66.0447 66.1974 69.3828C66.0304 72.6793 65.8351 75.8275 65.6114 78.8275C65.3877 81.8275 65.1295 84.716 64.8369 87.4931C64.5662 90.2284 64.2588 92.9578 63.9146 95.681L59.5677 97.0252C57.7464 94.9716 55.9361 92.8971 54.1368 90.8018C52.3594 88.6648 50.5158 86.4262 48.6059 84.086C46.7278 81.736 44.7735 79.2525 42.7431 76.6355C40.7029 73.9867 38.552 71.0929 36.2905 67.9543L41.4017 66.3738C44.6772 70.8736 47.8619 75.1922 50.9556 79.3296C54.0493 83.4669 57.1021 87.3029 60.1141 90.8376C60.615 86.2516 60.9745 81.3778 61.1928 76.2163C61.4012 71.0229 61.5713 65.6495 61.7032 60.096L66.6711 58.5598ZM104.195 83.2251C103.13 82.2635 101.91 81.193 100.533 80.0137C99.1884 78.8245 97.7493 77.6122 96.2159 76.3768C94.6726 75.1094 93.0766 73.841 91.428 72.5714C89.8112 71.2919 88.2141 70.0761 86.6366 68.9241C85.0494 67.7401 83.5235 66.6419 82.059 65.6294C80.5945 64.6168 79.2588 63.7389 78.052 62.9956L86.0433 88.8382L81.5053 90.2415L71.2688 57.138L74.947 56.0007C76.9361 57.1301 79.1044 58.5007 81.452 60.1124C83.8216 61.6825 86.184 63.342 88.5391 65.0909C90.9163 66.7982 93.1721 68.5081 95.3066 70.2206C97.473 71.9233 99.3267 73.4609 100.868 74.8336L93.29 50.3285L97.828 48.9252L108.064 82.0287L104.195 83.2251Z" fill="white"/>
</svg>
