<svg width="964" height="270" viewBox="0 0 964 270" fill="none" xmlns="http://www.w3.org/2000/svg">
<path d="M138.9 127C135 141.6 130.4 155.6 125.1 169C119.9 182.4 114.85 194.4 109.95 205H97.35C92.45 194.4 87.35 182.4 82.05 169C76.85 155.6 72.3 141.6 68.4 127H83.4C84.6 131.9 86 137.15 87.6 142.75C89.3 148.25 91.05 153.75 92.85 159.25C94.75 164.65 96.65 169.9 98.55 175C100.45 180.1 102.25 184.65 103.95 188.65C105.65 184.65 107.45 180.1 109.35 175C111.25 169.9 113.1 164.65 114.9 159.25C116.8 153.75 118.55 148.25 120.15 142.75C121.85 137.15 123.3 131.9 124.5 127H138.9ZM153.293 129.25C156.493 128.45 160.743 127.6 166.043 126.7C171.343 125.8 177.443 125.35 184.343 125.35C190.543 125.35 195.693 126.25 199.793 128.05C203.893 129.75 207.143 132.2 209.543 135.4C212.043 138.5 213.793 142.25 214.793 146.65C215.793 151.05 216.293 155.9 216.293 161.2V205H202.343V164.2C202.343 159.4 201.993 155.3 201.293 151.9C200.693 148.5 199.643 145.75 198.143 143.65C196.643 141.55 194.643 140.05 192.143 139.15C189.643 138.15 186.543 137.65 182.843 137.65C181.343 137.65 179.793 137.7 178.193 137.8C176.593 137.9 175.043 138.05 173.543 138.25C172.143 138.35 170.843 138.5 169.643 138.7C168.543 138.9 167.743 139.05 167.243 139.15V205H153.293V129.25ZM301.125 205C298.325 197.8 295.325 189.6 292.125 180.4C289.025 171.1 286.175 161.45 283.575 151.45C280.975 161.45 278.125 171.1 275.025 180.4C271.925 189.6 268.975 197.8 266.175 205H254.025C249.425 194.7 244.925 182.95 240.525 169.75C236.125 156.55 231.975 142.3 228.075 127H243.075C244.075 131.7 245.275 136.8 246.675 142.3C248.075 147.8 249.525 153.3 251.025 158.8C252.625 164.3 254.275 169.6 255.975 174.7C257.675 179.8 259.275 184.25 260.775 188.05C262.475 183.35 264.125 178.4 265.725 173.2C267.425 167.9 269.025 162.6 270.525 157.3C272.025 151.9 273.425 146.65 274.725 141.55C276.125 136.35 277.325 131.5 278.325 127H289.875C290.775 131.5 291.875 136.35 293.175 141.55C294.475 146.65 295.875 151.9 297.375 157.3C298.875 162.6 300.425 167.9 302.025 173.2C303.725 178.4 305.425 183.35 307.125 188.05C308.625 184.25 310.175 179.8 311.775 174.7C313.475 169.6 315.125 164.3 316.725 158.8C318.325 153.3 319.825 147.8 321.225 142.3C322.625 136.8 323.825 131.7 324.825 127H339.225C335.325 142.3 331.175 156.55 326.775 169.75C322.375 182.95 317.875 194.7 313.275 205H301.125ZM421.069 166C421.069 172.2 420.169 177.8 418.369 182.8C416.569 187.8 414.019 192.1 410.719 195.7C407.519 199.3 403.669 202.1 399.169 204.1C394.669 206 389.769 206.95 384.469 206.95C379.169 206.95 374.269 206 369.769 204.1C365.269 202.1 361.369 199.3 358.069 195.7C354.869 192.1 352.369 187.8 350.569 182.8C348.769 177.8 347.869 172.2 347.869 166C347.869 159.9 348.769 154.35 350.569 149.35C352.369 144.25 354.869 139.9 358.069 136.3C361.369 132.7 365.269 129.95 369.769 128.05C374.269 126.05 379.169 125.05 384.469 125.05C389.769 125.05 394.669 126.05 399.169 128.05C403.669 129.95 407.519 132.7 410.719 136.3C414.019 139.9 416.569 144.25 418.369 149.35C420.169 154.35 421.069 159.9 421.069 166ZM406.519 166C406.519 157.2 404.519 150.25 400.519 145.15C396.619 139.95 391.269 137.35 384.469 137.35C377.669 137.35 372.269 139.95 368.269 145.15C364.369 150.25 362.419 157.2 362.419 166C362.419 174.8 364.369 181.8 368.269 187C372.269 192.1 377.669 194.65 384.469 194.65C391.269 194.65 396.619 192.1 400.519 187C404.519 181.8 406.519 174.8 406.519 166ZM440.695 129.25C443.895 128.45 448.145 127.6 453.445 126.7C458.745 125.8 464.845 125.35 471.745 125.35C477.945 125.35 483.095 126.25 487.195 128.05C491.295 129.75 494.545 132.2 496.945 135.4C499.445 138.5 501.195 142.25 502.195 146.65C503.195 151.05 503.695 155.9 503.695 161.2V205H489.745V164.2C489.745 159.4 489.395 155.3 488.695 151.9C488.095 148.5 487.045 145.75 485.545 143.65C484.045 141.55 482.045 140.05 479.545 139.15C477.045 138.15 473.945 137.65 470.245 137.65C468.745 137.65 467.195 137.7 465.595 137.8C463.995 137.9 462.445 138.05 460.945 138.25C459.545 138.35 458.245 138.5 457.045 138.7C455.945 138.9 455.145 139.05 454.645 139.15V205H440.695V129.25ZM553.228 194.95C556.528 194.95 559.428 194.9 561.928 194.8C564.528 194.6 566.678 194.3 568.378 193.9V170.65C567.378 170.15 565.728 169.75 563.428 169.45C561.228 169.05 558.528 168.85 555.328 168.85C553.228 168.85 550.978 169 548.578 169.3C546.278 169.6 544.128 170.25 542.128 171.25C540.228 172.15 538.628 173.45 537.328 175.15C536.028 176.75 535.378 178.9 535.378 181.6C535.378 186.6 536.978 190.1 540.178 192.1C543.378 194 547.728 194.95 553.228 194.95ZM552.028 125.05C557.628 125.05 562.328 125.8 566.128 127.3C570.028 128.7 573.128 130.75 575.428 133.45C577.828 136.05 579.528 139.2 580.528 142.9C581.528 146.5 582.028 150.5 582.028 154.9V203.65C580.828 203.85 579.128 204.15 576.928 204.55C574.828 204.85 572.428 205.15 569.728 205.45C567.028 205.75 564.078 206 560.878 206.2C557.778 206.5 554.678 206.65 551.578 206.65C547.178 206.65 543.128 206.2 539.428 205.3C535.728 204.4 532.528 203 529.828 201.1C527.128 199.1 525.028 196.5 523.528 193.3C522.028 190.1 521.278 186.25 521.278 181.75C521.278 177.45 522.128 173.75 523.828 170.65C525.628 167.55 528.028 165.05 531.028 163.15C534.028 161.25 537.528 159.85 541.528 158.95C545.528 158.05 549.728 157.6 554.128 157.6C555.528 157.6 556.978 157.7 558.478 157.9C559.978 158 561.378 158.2 562.678 158.5C564.078 158.7 565.278 158.9 566.278 159.1C567.278 159.3 567.978 159.45 568.378 159.55V155.65C568.378 153.35 568.128 151.1 567.628 148.9C567.128 146.6 566.228 144.6 564.928 142.9C563.628 141.1 561.828 139.7 559.528 138.7C557.328 137.6 554.428 137.05 550.828 137.05C546.228 137.05 542.178 137.4 538.678 138.1C535.278 138.7 532.728 139.35 531.028 140.05L529.378 128.5C531.178 127.7 534.178 126.95 538.378 126.25C542.578 125.45 547.128 125.05 552.028 125.05ZM605.197 205V91L619.147 88.6V128.5C621.747 127.5 624.497 126.75 627.397 126.25C630.397 125.65 633.347 125.35 636.247 125.35C642.447 125.35 647.597 126.25 651.697 128.05C655.797 129.75 659.047 132.2 661.447 135.4C663.947 138.5 665.697 142.25 666.697 146.65C667.697 151.05 668.197 155.9 668.197 161.2V205H654.247V164.2C654.247 159.4 653.897 155.3 653.197 151.9C652.597 148.5 651.547 145.75 650.047 143.65C648.547 141.55 646.547 140.05 644.047 139.15C641.547 138.15 638.447 137.65 634.747 137.65C633.247 137.65 631.697 137.75 630.097 137.95C628.497 138.15 626.947 138.4 625.447 138.7C624.047 138.9 622.747 139.15 621.547 139.45C620.447 139.75 619.647 140 619.147 140.2V205H605.197ZM707.391 196.9C707.391 199.6 706.491 201.95 704.691 203.95C702.891 205.95 700.441 206.95 697.341 206.95C694.241 206.95 691.791 205.95 689.991 203.95C688.191 201.95 687.291 199.6 687.291 196.9C687.291 194.2 688.191 191.85 689.991 189.85C691.791 187.85 694.241 186.85 697.341 186.85C700.441 186.85 702.891 187.85 704.691 189.85C706.491 191.85 707.391 194.2 707.391 196.9ZM778.205 143.5C776.505 142.1 774.055 140.75 770.855 139.45C767.655 138.15 764.155 137.5 760.355 137.5C756.355 137.5 752.905 138.25 750.005 139.75C747.205 141.15 744.905 143.15 743.105 145.75C741.305 148.25 740.005 151.25 739.205 154.75C738.405 158.25 738.005 162 738.005 166C738.005 175.1 740.255 182.15 744.755 187.15C749.255 192.05 755.255 194.5 762.755 194.5C766.555 194.5 769.705 194.35 772.205 194.05C774.805 193.65 776.805 193.25 778.205 192.85V143.5ZM778.205 91L792.155 88.6V202.75C788.955 203.65 784.855 204.55 779.855 205.45C774.855 206.35 769.105 206.8 762.605 206.8C756.605 206.8 751.205 205.85 746.405 203.95C741.605 202.05 737.505 199.35 734.105 195.85C730.705 192.35 728.055 188.1 726.155 183.1C724.355 178 723.455 172.3 723.455 166C723.455 160 724.205 154.5 725.705 149.5C727.305 144.5 729.605 140.2 732.605 136.6C735.605 133 739.255 130.2 743.555 128.2C747.955 126.2 752.955 125.2 758.555 125.2C763.055 125.2 767.005 125.8 770.405 127C773.905 128.2 776.505 129.35 778.205 130.45V91ZM811.785 166.15C811.785 159.25 812.785 153.25 814.785 148.15C816.785 142.95 819.435 138.65 822.735 135.25C826.035 131.85 829.835 129.3 834.135 127.6C838.435 125.9 842.835 125.05 847.335 125.05C857.835 125.05 865.885 128.35 871.485 134.95C877.085 141.45 879.885 151.4 879.885 164.8C879.885 165.4 879.885 166.2 879.885 167.2C879.885 168.1 879.835 168.95 879.735 169.75H826.335C826.935 177.85 829.285 184 833.385 188.2C837.485 192.4 843.885 194.5 852.585 194.5C857.485 194.5 861.585 194.1 864.885 193.3C868.285 192.4 870.835 191.55 872.535 190.75L874.485 202.45C872.785 203.35 869.785 204.3 865.485 205.3C861.285 206.3 856.485 206.8 851.085 206.8C844.285 206.8 838.385 205.8 833.385 203.8C828.485 201.7 824.435 198.85 821.235 195.25C818.035 191.65 815.635 187.4 814.035 182.5C812.535 177.5 811.785 172.05 811.785 166.15ZM865.335 158.5C865.435 152.2 863.835 147.05 860.535 143.05C857.335 138.95 852.885 136.9 847.185 136.9C843.985 136.9 841.135 137.55 838.635 138.85C836.235 140.05 834.185 141.65 832.485 143.65C830.785 145.65 829.435 147.95 828.435 150.55C827.535 153.15 826.935 155.8 826.635 158.5H865.335ZM960.824 127C956.924 141.6 952.324 155.6 947.024 169C941.824 182.4 936.774 194.4 931.874 205H919.274C914.374 194.4 909.274 182.4 903.974 169C898.774 155.6 894.224 141.6 890.324 127H905.324C906.524 131.9 907.924 137.15 909.524 142.75C911.224 148.25 912.974 153.75 914.774 159.25C916.674 164.65 918.574 169.9 920.474 175C922.374 180.1 924.174 184.65 925.874 188.65C927.574 184.65 929.374 180.1 931.274 175C933.174 169.9 935.024 164.65 936.824 159.25C938.724 153.75 940.474 148.25 942.074 142.75C943.774 137.15 945.224 131.9 946.424 127H960.824Z" fill="black"/>
<circle cx="74.6087" cy="74.3116" r="59.0005" transform="rotate(-17.183 74.6087 74.3116)" fill="#8B4CA8"/>
<path d="M67.4824 59.074C67.3555 62.9512 67.1976 66.5589 67.0087 69.897C66.8418 73.1935 66.6464 76.3417 66.4227 79.3417C66.199 82.3417 65.9408 85.2302 65.6482 88.0073C65.3775 90.7427 65.0701 93.472 64.7259 96.1952L60.379 97.5394C58.5577 95.4858 56.7474 93.4113 54.9481 91.316C53.1708 89.1791 51.3271 86.9405 49.4172 84.6003C47.5391 82.2502 45.5849 79.7667 43.5545 77.1497C41.5142 74.5009 39.3633 71.6072 37.1018 68.4685L42.213 66.888C45.4886 71.3878 48.6732 75.7064 51.7669 79.8438C54.8606 83.9812 57.9134 87.8172 60.9254 91.3518C61.4263 86.7658 61.7859 81.892 62.0041 76.7305C62.2125 71.5372 62.3826 66.1637 62.5145 60.6102L67.4824 59.074ZM105.007 83.7394C103.942 82.7777 102.721 81.7072 101.344 80.5279C99.9997 79.3388 98.5607 78.1264 97.0272 76.891C95.4839 75.6237 93.888 74.3552 92.2393 73.0856C90.6225 71.8061 89.0254 70.5904 87.4479 69.4383C85.8607 68.2544 84.3348 67.1561 82.8703 66.1436C81.4058 65.131 80.0702 64.2531 78.8634 63.5098L86.8546 89.3524L82.3166 90.7557L72.0801 57.6523L75.7583 56.5149C77.7474 57.6443 79.9158 59.0149 82.2634 60.6266C84.633 62.1967 86.9953 63.8562 89.3505 65.6051C91.7276 67.3124 93.9834 69.0223 96.118 70.7348C98.2843 72.4375 100.138 73.9752 101.679 75.3479L94.1013 50.8427L98.6393 49.4395L108.876 82.5429L105.007 83.7394Z" fill="white"/>
</svg>
